# xmcd
#
# Track frame offsets:
#	150
#	2975
#	41761
#	74128
#	95990
#	127475
#	167285
#	206050
#
# Disc length: 2829 seconds
#
# Revision: 1
# Processed by: cddbd v1.5.1PL2 Copyright (c) Steve Scherf et al.
# Submitted via: EasyCDDAExtractor 9.0.0.1
#
DISCID=7e0b0b08
DTITLE=Whitesnake - Europahalle Karlsruhe 04-09-04 Disc 2 Source 2
DYEAR=2004
DGENRE=Hard Rock
TTITLE0=Band Introduction
TTITLE1=Ain't No Love In The Heart Of The City 
TTITLE2=Don't Break My Heart Again
TTITLE3=Fool For Your Loving 
TTITLE4=Here I Go Again
TTITLE5=Take Me With You
TTITLE6=Still Of The Night
TTITLE7=We Wish You Well
EXTD=
EXTT0=
EXTT1=
EXTT2=
EXTT3=
EXTT4=
EXTT5=
EXTT6=
EXTT7=
PLAYORDER=
